<?xml version="1.0" standalone="no"?>
<!DOCTYPE svg PUBLIC "-//W3C//DTD SVG 20010904//EN"
 "http://www.w3.org/TR/2001/REC-SVG-20010904/DTD/svg10.dtd">
<svg 
    version="1.0" 
    xmlns="http://www.w3.org/2000/svg"
    width="626.000000pt" 
    height="626.000000pt" 
    viewBox="0 0 626.000000 626.000000"
    preserveAspectRatio="xMidYMid meet"
>
    <path fill="#232323" d="M0 313 C0 139.767 139.767 0 313 0 C486.233 0 626 139.767 626 313 C626 486.233 486.233 626 313 626 C139.767 626 0 486.233 0 313 M292 398 L415 398 L415 430 L292 430 L292 398 Z M292 353 L415 353 L415 364 L292 364 L292 353 Z M292 309 L415 309 L415 320 L292 320 L292 309 Z"/>
    <g transform="translate(0.000000,626.000000) scale(0.100000,-0.100000)"
    fill="#fff" stroke="none">
        <path d="M3815 4461 c-354 -97 -430 -120 -429 -134 1 -9 -2 -15 -6 -12 -12 7
        -23 -32 -14 -46 4 -7 3 -9 -3 -6 -6 4 -22 -26 -39 -70 -36 -97 -38 -103 -21
        -75 7 12 17 19 22 15 4 -4 5 0 2 9 -4 11 -2 17 6 15 8 -1 11 9 10 30 -2 17 3
        35 10 39 6 4 9 4 6 0 -4 -4 -2 -26 3 -48 6 -30 6 -43 -3 -49 -6 -4 -8 -12 -5
        -18 4 -6 12 -9 17 -6 5 4 9 -4 9 -17 0 -13 3 -34 7 -48 l7 -25 7 30 c6 29 7
        29 8 4 1 -18 8 -28 21 -32 17 -4 20 -14 20 -55 0 -28 -4 -54 -10 -57 -5 -3
        -10 -15 -10 -26 0 -21 20 -27 20 -6 0 7 5 5 11 -5 5 -10 16 -15 24 -12 11 5
        15 -2 17 -22 1 -16 2 -40 3 -54 1 -14 2 -37 3 -52 2 -19 8 -27 24 -30 26 -3
        38 -38 14 -38 -9 0 -16 -7 -16 -15 0 -8 9 -15 19 -15 11 0 26 -6 34 -14 8 -8
        25 -13 38 -10 24 5 24 4 -1 -6 -20 -9 -31 -8 -52 5 -35 20 -37 13 -3 -9 27
        -17 -30 -31 830 196 44 12 86 26 93 33 10 9 -4 73 -73 331 -127 470 -111 424
        -143 423 -15 0 -220 -53 -457 -118z m252 -188 c19 -9 46 -33 60 -54 14 -21 35
        -39 46 -41 17 -2 23 -11 25 -35 2 -25 -1 -33 -12 -33 -11 0 -16 -10 -16 -32
        -1 -71 -68 -158 -123 -158 -21 0 -46 72 -27 78 8 3 24 15 37 28 26 26 32 59 9
        51 -8 -3 -33 -11 -54 -17 -37 -9 -40 -13 -46 -55 -8 -52 -42 -97 -86 -115 -46
        -19 -100 1 -144 51 -19 23 -39 39 -43 36 -14 -9 -29 6 -37 35 -5 21 -2 30 14
        38 14 7 20 21 20 43 0 41 31 92 72 117 41 25 48 22 64 -22 12 -34 11 -37 -17
        -57 -32 -24 -41 -58 -11 -46 9 3 29 9 45 12 21 4 27 11 27 32 0 121 97 192
        197 144z m-377 -653 c-8 -5 -22 -9 -30 -9 -10 0 -8 3 5 9 27 12 43 12 25 0z"/>
        <path d="M3982 4188 c-7 -7 -12 -22 -12 -34 0 -20 2 -21 45 -11 49 11 53 17
        29 41 -18 19 -45 21 -62 4z"/>
        <path d="M3823 4013 c-29 -5 -29 -19 -2 -33 23 -13 49 2 49 26 0 14 -6 15 -47
        7z"/>
        <path d="M3261 4029 c-6 -18 -9 -34 -7 -36 2 -2 9 10 15 28 6 18 9 34 7 36 -2
        2 -9 -10 -15 -28z"/>
        <path d="M3231 3949 c-6 -18 -9 -34 -7 -36 2 -2 9 10 15 28 6 18 9 34 7 36 -2
        2 -9 -10 -15 -28z"/>
        <path d="M3311 3976 c2 -2 15 -9 29 -15 24 -11 24 -11 6 3 -16 13 -49 24 -35
        12z"/>
        <path d="M3367 3911 c-4 -17 -3 -21 5 -13 5 5 8 16 6 23 -3 8 -7 3 -11 -10z"/>
        <path d="M3247 3899 c-9 -5 -22 -7 -27 -4 -6 3 -10 0 -11 -7 0 -7 -27 -32 -59
        -55 -67 -47 -135 -129 -182 -218 -17 -33 -35 -61 -39 -63 -4 -2 -36 -26 -70
        -54 -167 -134 -290 -140 -449 -21 -193 144 -266 127 -329 -76 -44 -142 -98
        -266 -148 -338 -60 -88 -62 -103 -19 -141 78 -68 229 -134 384 -167 38 -8 139
        -26 223 -40 200 -34 335 -68 604 -155 369 -118 515 -152 710 -166 183 -12 427
        34 446 83 24 65 0 161 -53 209 -41 38 -125 74 -258 109 -71 19 -166 51 -210
        71 l-80 37 -50 -47 c-53 -49 -70 -55 -94 -30 -22 22 -21 29 19 73 36 39 45 71
        22 71 -7 0 -33 -20 -57 -45 -44 -45 -75 -56 -98 -33 -20 20 -14 36 29 83 38
        41 44 65 15 65 -6 0 -30 -18 -51 -40 -43 -44 -78 -52 -95 -21 -14 27 -15 27
        31 76 38 41 44 65 15 65 -6 0 -27 -16 -46 -35 -38 -39 -74 -45 -90 -16 -14 27
        -15 27 31 76 38 42 44 65 15 65 -7 0 -25 -14 -41 -30 -32 -34 -70 -37 -88 -8
        -9 13 -3 25 31 62 23 25 42 52 42 60 0 31 -23 27 -60 -9 -44 -43 -83 -46 -88
        -7 -3 16 10 38 42 72 49 53 55 67 30 77 -10 4 -31 -9 -58 -37 -50 -48 -89 -53
        -94 -11 -3 17 9 36 44 72 31 32 45 53 41 64 -7 18 -65 45 -97 45 -59 0 144
        254 235 294 69 30 85 39 85 48 0 11 -31 10 -53 -3z"/>
        <path d="M3356 3868 c3 -5 10 -6 15 -3 13 9 11 12 -6 12 -8 0 -12 -4 -9 -9z"/>
        <path d="M3250 3856 c0 -2 8 -10 18 -17 15 -13 16 -12 3 4 -13 16 -21 21 -21
        13z"/>
        <path d="M3305 3810 c10 -11 20 -20 23 -20 3 0 -3 9 -13 20 -10 11 -20 20 -23
        20 -3 0 3 -9 13 -20z"/>
        <path d="M3374 3753 c15 -18 22 -20 33 -12 7 6 13 14 13 17 0 3 -5 1 -12 -6
        -9 -9 -16 -8 -32 6 -21 17 -21 17 -2 -5z"/>
        <path d="M3413 3723 c4 -7 22 -22 39 -35 17 -12 29 -17 25 -11 -4 6 -4 13 0
        16 5 2 3 2 -4 1 -6 -2 -24 7 -39 19 -16 12 -25 16 -21 10z"/>
        <path d="M1806 2867 c-37 -58 -45 -102 -23 -129 17 -22 92 -70 162 -105 117
        -59 235 -89 565 -148 176 -31 315 -67 558 -146 268 -86 341 -100 572 -106 153
        -4 215 -2 287 11 126 22 214 52 275 95 75 52 72 62 -11 41 -276 -73 -532 -42
        -1051 125 -282 90 -431 129 -665 169 -217 38 -314 63 -408 102 -69 29 -159 84
        -199 121 l-27 25 -35 -55z"/>
        <path d="M1556 2070 c-70 -21 -101 -89 -71 -154 13 -27 31 -42 74 -62 69 -34
        91 -52 91 -75 0 -38 -89 -53 -140 -24 -37 21 -40 19 -40 -25 0 -37 2 -40 38
        -49 56 -16 122 -13 169 8 49 23 63 45 63 99 0 52 -30 89 -95 118 -52 22 -85
        48 -85 64 0 34 77 52 134 30 25 -9 26 -8 26 29 0 32 -4 40 -22 45 -32 8 -107
        6 -142 -4z"/>
        <path d="M2340 2064 c-73 -31 -112 -95 -113 -183 -1 -102 35 -162 115 -195
        100 -42 219 8 254 106 29 78 8 196 -42 240 -52 46 -148 61 -214 32z m114 -64
        c59 -22 86 -132 50 -201 -18 -35 -67 -59 -106 -52 -101 19 -111 213 -13 254
        27 11 39 11 69 -1z"/>
        <path d="M3053 2073 c-12 -2 -36 -17 -53 -33 -25 -23 -30 -36 -30 -73 0 -58
        22 -84 103 -125 37 -19 67 -41 70 -52 12 -45 -67 -65 -138 -36 l-35 15 0 -39
        c0 -35 3 -39 36 -50 47 -16 146 -7 180 15 49 32 64 111 30 158 -8 9 -44 34
        -82 55 -72 39 -90 67 -60 91 16 14 96 11 129 -3 15 -7 17 -3 17 32 0 36 -3 40
        -31 46 -34 6 -100 6 -136 -1z"/>
        <path d="M3438 2073 c6 -2 18 -2 25 0 6 3 1 5 -13 5 -14 0 -19 -2 -12 -5z"/>
        <path d="M4181 2065 c-24 -7 -54 -24 -68 -37 -61 -56 -81 -172 -44 -255 36
        -77 141 -121 227 -93 51 16 112 75 124 120 17 62 10 177 -11 164 -5 -3 -6 3
        -2 12 4 12 3 15 -5 10 -7 -4 -10 -2 -7 7 3 7 -4 22 -16 33 -13 10 -19 14 -16
        8 9 -15 -26 -25 -44 -13 -19 12 -109 11 -109 -1 0 -5 -7 -7 -15 -4 -8 4 -15 1
        -15 -4 0 -8 -10 -8 -32 0 -29 10 -30 12 -13 24 10 8 33 17 52 20 18 3 36 10
        39 15 3 5 4 9 2 8 -2 0 -23 -6 -47 -14z m-61 -49 c0 -2 -8 -10 -17 -17 -16
        -13 -17 -12 -4 4 13 16 21 21 21 13z m196 -27 c2 -8 10 -34 19 -58 51 -142
        -92 -255 -177 -140 -14 19 -20 45 -21 92 -1 36 -1 64 1 63 1 -2 18 12 37 31
        32 32 38 34 86 31 35 -3 53 -9 55 -19z"/>
        <path d="M1810 1875 l0 -195 45 0 45 0 0 80 0 80 85 0 85 0 0 -80 0 -80 40 0
        40 0 0 195 0 195 -40 0 -39 0 -3 -77 -3 -78 -82 -3 -83 -3 0 81 0 80 -45 0
        -45 0 0 -195z"/>
        <path d="M2680 1875 l0 -195 120 0 120 0 0 35 0 35 -75 0 -75 0 0 45 0 45 65
        0 65 0 0 35 0 35 -65 0 -65 0 0 45 0 45 70 0 70 0 0 35 0 35 -115 0 -115 0 0
        -195z"/>
        <path d="M3362 2059 c-23 -9 -22 -29 1 -29 7 0 6 4 -3 11 -12 9 -11 10 8 6 12
        -3 20 -1 17 3 -3 5 3 11 12 13 12 3 13 5 3 5 -8 0 -25 -3 -38 -9z"/>
        <path d="M3500 2066 c0 -2 9 -6 20 -9 11 -3 20 -1 20 4 0 5 -9 9 -20 9 -11 0
        -20 -2 -20 -4z"/>
        <path d="M3640 1875 l0 -195 40 0 40 0 0 80 0 80 85 0 85 0 0 -80 0 -80 43 0
        42 0 -3 195 -3 195 -39 0 -40 0 0 -80 0 -80 -85 0 -85 0 0 80 0 80 -40 0 -40
        0 0 -195z m70 149 c0 -36 0 -36 -24 -20 -23 15 -25 15 -29 -7 -2 -12 -5 -3 -6
        21 -1 40 0 42 29 42 28 0 30 -3 30 -36z m250 2 c0 -29 -3 -33 -20 -29 -11 3
        -21 10 -22 17 -1 6 -4 -14 -8 -44 l-7 -55 -1 73 -2 72 30 0 c27 0 30 -3 30
        -34z"/>
        <path d="M4288 2063 c7 -3 16 -2 19 1 4 3 -2 6 -13 5 -11 0 -14 -3 -6 -6z"/>
        <path d="M4510 1875 l0 -195 40 0 40 0 0 70 0 70 45 0 c62 0 111 22 135 62 42
        69 13 158 -57 177 -21 6 -75 11 -120 11 l-83 0 0 -195z m202 175 c34 -10 67
        -44 54 -57 -8 -8 -27 7 -21 17 10 16 -40 22 -101 12 -52 -8 -54 -10 -20 -11
        22 0 49 -9 60 -18 l21 -18 -20 25 -20 25 21 -17 c15 -14 19 -26 16 -55 -6 -52
        -27 -73 -74 -73 l-38 0 0 59 c0 33 -3 66 -6 75 -4 11 3 16 33 19 l38 4 -42 1
        c-23 1 -44 -2 -47 -7 -3 -5 -14 -11 -25 -14 -14 -3 -18 1 -18 19 0 23 2 24 76
        24 42 0 93 -5 113 -10z"/>
        <path d="M4320 2056 c0 -2 7 -7 16 -10 8 -3 12 -2 9 4 -6 10 -25 14 -25 6z"/>
        <path d="M3485 2015 c27 -8 51 -12 53 -10 5 5 -69 25 -88 24 -8 0 7 -7 35 -14z"/>
        <path d="M3306 2004 c-11 -29 -6 -79 10 -102 8 -12 47 -38 85 -57 38 -20 69
        -37 69 -39 0 -3 3 -11 6 -19 16 -42 -85 -64 -146 -32 l-30 16 0 -40 c0 -43 5
        -47 78 -57 59 -8 127 10 158 41 29 29 33 98 8 133 -8 12 -46 38 -83 57 -38 19
        -71 41 -74 49 -9 23 3 46 27 56 19 8 18 9 -6 7 -18 -1 -28 -7 -28 -18 0 -8 -7
        -16 -15 -16 -8 0 -15 9 -15 21 -1 20 -1 20 -13 -2 -14 -24 -30 -21 -20 4 3 8
        3 14 0 14 -3 0 -8 -7 -11 -16z"/>
    </g>
</svg>